<?xml version="1.0" encoding="utf-8"?>
<!-- Generator: Adobe Illustrator 24.0.0, SVG Export Plug-In . SVG Version: 6.00 Build 0)  -->
<svg version="1.1" id="Layer_1" xmlns="http://www.w3.org/2000/svg" xmlns:xlink="http://www.w3.org/1999/xlink" x="0px" y="0px"
	 viewBox="0 0 1920 1080" style="enable-background:new 0 0 1920 1080;" xml:space="preserve">
<style type="text/css">
	.st0{fill:#2E006A;}
</style>
<g>
	<g>
		<g>
			<path class="st0" d="M616.5,414.3c14.5-39.6,35.7-76.3,63-108.9l5.2-6.2l-43-74.6L631,236.3c-45,48.7-79,107.7-98.6,170.6
				l-4.6,15h86.1L616.5,414.3z"/>
		</g>
		<g>
			<path class="st0" d="M641.6,855.3l43-74.5l-5.2-6.2c-27.2-32.5-48.4-69.2-63-108.8l-2.8-7.6h-86.1l4.7,15.1
				c19.6,63,53.7,122,98.7,170.6L641.6,855.3z"/>
		</g>
		<g>
			<path class="st0" d="M1022.9,900.3c-41.3,7.2-84.4,7.2-125.8,0l-8-1.4l-43,74.5l15.4,3.5c32.1,7.2,65.3,10.9,98.5,10.9
				s66.4-3.6,98.5-10.9l15.4-3.5l-43-74.5L1022.9,900.3z"/>
		</g>
		<g>
			<path class="st0" d="M1303.6,665.7c-14.5,39.6-35.7,76.3-63,108.8l-5.2,6.2l43,74.5l10.7-11.6c45-48.7,79-107.7,98.6-170.6
				l4.6-15.1h-86.1L1303.6,665.7z"/>
		</g>
		<g>
			<path class="st0" d="M1278.5,224.7l-43,74.5l5.2,6.2c27.3,32.6,48.4,69.2,63,108.9l2.8,7.6h86.1l-4.7-15.1
				c-19.6-63-53.7-122-98.7-170.6L1278.5,224.7z"/>
		</g>
		<g>
			<path class="st0" d="M897.2,179.7c41.3-7.2,84.5-7.2,125.8,0l8,1.4l43-74.6l-15.4-3.5c-64.2-14.4-132.7-14.4-197.1,0l-15.4,3.5
				l43,74.6L897.2,179.7z"/>
		</g>
		<g>
			<path class="st0" d="M1279.8,457.5c-15.2-59-46.3-111.6-88.4-153l120.2-208.2l-142.9-82.5l-120.2,208.1
				c-28.1-7.8-57.8-12-88.4-12c-30.6,0-60.3,4.2-88.4,12L751.5,13.7L608.6,96.2l149.6,259.2c50-54.7,121.9-88.9,201.9-88.9
				c141.1,0,257.3,106.8,271.9,244h-133.6c-13.6-64-70.4-112-138.4-112s-124.8,48-138.4,112h-69.4l-53.1-53.1H400v165.1h240.3
				c15.2,59,46.3,111.6,88.5,153L608.5,983.8l142.9,82.5l120.2-208.1c28.1,7.8,57.8,12,88.4,12c30.6,0,60.3-4.2,88.4-12l120.1,208.1
				l142.9-82.5l-149.6-259.2c-50,54.7-121.9,88.9-201.9,88.9c-141.1,0-257.3-106.8-271.9-244h133.6c13.6,64,70.4,112,138.4,112
				s124.8-48,138.4-112h69.4l53.1,53.1H1520V457.5H1279.8L1279.8,457.5z"/>
		</g>
	</g>
</g>
</svg>
