<svg width="120" height="120" viewBox="0 0 120 120" fill="none" xmlns="http://www.w3.org/2000/svg">
<path d="M120 60C120 93.1371 93.1371 120 60 120C26.8629 120 0 93.1371 0 60C0 26.8629 26.8629 0 60 0C93.1371 0 120 26.8629 120 60Z" fill="url(#paint0_linear_996_880)"/>
<path d="M31.3793 34.2651C27.4542 38.4488 24.5256 43.4427 22.8069 48.8828H28.3655C29.7023 45.2838 31.6624 41.9406 34.1586 39.0017L31.3793 34.2651Z" fill="white"/>
<path d="M28.3586 71.703H22.8C24.5212 77.1435 27.4521 82.1374 31.3793 86.3207L34.1379 81.5637C31.6475 78.6307 29.692 75.2944 28.3586 71.703Z" fill="white"/>
<path d="M60 93.4903C58.0606 93.4901 56.1248 93.3265 54.2138 93.001L51.4552 97.7581C57.0961 98.9991 62.9453 98.9991 68.5862 97.7581L65.8276 93.001C63.9029 93.3288 61.9532 93.4925 60 93.4903Z" fill="white"/>
<path d="M88.6207 86.3276C92.5458 82.1438 95.4744 77.15 97.1931 71.7098H91.6345C90.2962 75.3081 88.3363 78.6511 85.8414 81.5909L88.6207 86.3276Z" fill="white"/>
<path d="M85.8414 39.0085C88.3376 41.9474 90.2977 45.2906 91.6345 48.8896H97.1931C95.4719 43.449 92.541 38.4552 88.6138 34.2718L85.8414 39.0085Z" fill="white"/>
<path d="M60 27.1091C61.9394 27.1093 63.8752 27.273 65.7862 27.5984L68.5449 22.8413C62.9039 21.6004 57.0547 21.6004 51.4138 22.8413L54.1724 27.5984C56.0966 27.2673 58.0467 27.1035 60 27.1091Z" fill="white"/>
<path d="M39.3517 81.02L28.6207 99.3687L41.3793 106.593L52.1103 88.2847C57.2736 89.6889 62.7264 89.6889 67.8897 88.2847L78.6207 106.593L91.3793 99.3347L78.0138 76.5348C74.843 79.9503 70.7398 82.3921 66.1961 83.5674C61.6524 84.7428 56.8611 84.6019 52.3967 83.1615C47.9323 81.7212 43.9841 79.0426 41.0257 75.4468C38.0673 71.8511 36.2241 67.4909 35.7172 62.8889H47.6414C48.2428 65.6775 49.7978 68.178 52.0462 69.9722C54.2945 71.7663 57.0999 72.7453 59.9931 72.7453C62.8863 72.7453 65.6917 71.7663 67.94 69.9722C70.1884 68.178 71.7434 65.6775 72.3448 62.8889H78.5517L83.2897 67.5576H110V53.035H88.5448C87.2045 47.9232 84.4743 43.2686 80.6483 39.5725L91.3793 21.2579L78.6207 14L67.8897 32.3078C62.7264 30.9036 57.2736 30.9036 52.1103 32.3078L41.3793 14L28.6207 21.2579L41.9793 44.0578C45.1501 40.6423 49.2533 38.2005 53.797 37.0252C58.3407 35.8498 63.132 35.9908 67.5964 37.4311C72.0609 38.8714 76.009 41.55 78.9674 45.1458C81.9258 48.7415 83.769 53.1017 84.2759 57.7037H72.3448C71.7434 54.9151 70.1884 52.4146 67.94 50.6204C65.6917 48.8263 62.8863 47.8473 59.9931 47.8473C57.0999 47.8473 54.2945 48.8263 52.0462 50.6204C49.7978 52.4146 48.2428 54.9151 47.6414 57.7037H41.4345L36.6966 53.035H10V67.5576H31.4552C32.7955 72.6694 35.5257 77.324 39.3517 81.02Z" fill="white"/>
<defs>
<linearGradient id="paint0_linear_996_880" x1="125.089" y1="115.827" x2="26.2382" y2="40.661" gradientUnits="userSpaceOnUse">
<stop stop-color="#4E07AA"/>
<stop offset="1" stop-color="#771FCE"/>
</linearGradient>
</defs>
</svg>
