<svg width="221" height="172" viewBox="0 0 221 172" fill="none" xmlns="http://www.w3.org/2000/svg">
<path d="M66.0701 51.8501C67.9466 46.7151 70.7046 41.947 74.2201 37.7601L74.8901 36.9601L69.3201 27.3101L67.9401 28.8101C62.1073 35.1366 57.7494 42.6775 55.1801 50.8901L54.5801 52.8301H65.7201L66.0701 51.8501Z" fill="#3B6BBD"/>
<path d="M69.3198 108.94L74.8898 99.3002L74.2198 98.5002C70.7097 94.3095 67.9522 89.5423 66.0698 84.4102L65.7098 83.4102H54.5698L55.1798 85.3602C57.7641 93.5852 62.1429 101.134 67.9998 107.46L69.3198 108.94Z" fill="#3B6BBD"/>
<path d="M118.68 114.77C113.293 115.7 107.787 115.7 102.4 114.77L101.4 114.59L95.8301 124.24L97.8301 124.69C102.016 125.625 106.291 126.098 110.58 126.1C114.869 126.103 119.145 125.63 123.33 124.69L125.33 124.24L119.76 114.59L118.68 114.77Z" fill="#3B6BBD"/>
<path d="M155 84.3999C153.119 89.5328 150.362 94.3002 146.85 98.4899L146.18 99.2899L151.75 108.94L153.13 107.44C158.967 101.114 163.328 93.5733 165.9 85.3599L166.5 83.3599H155.36L155 84.3999Z" fill="#3B6BBD"/>
<path d="M151.76 27.3101L146.19 37.0001L146.86 37.8001C150.363 41.9753 153.117 46.7254 155 51.8401L155.36 52.8401H166.51L165.9 50.8401C163.328 42.6266 158.966 35.0857 153.13 28.7601L151.76 27.3101Z" fill="#3B6BBD"/>
<path d="M102.4 21.49C107.787 20.5601 113.293 20.5601 118.68 21.49L119.68 21.67L125.28 12L123.28 11.55C114.879 9.67995 106.171 9.67995 97.77 11.55L95.77 12L101.34 21.66L102.4 21.49Z" fill="#3B6BBD"/>
<path d="M151.93 57.44C149.987 49.918 146.028 43.0687 140.48 37.63L156 10.68L137.54 0L122 26.94C114.513 24.8737 106.607 24.8737 99.12 26.94L83.55 0L65.05 10.68L84.42 44.23C89.0177 39.2042 94.9673 35.6111 101.556 33.8815C108.144 32.152 115.091 32.3594 121.565 34.4788C128.038 36.5983 133.763 40.5399 138.053 45.831C142.342 51.1221 145.015 57.5382 145.75 64.31H128.46C127.588 60.2066 125.333 56.527 122.073 53.8869C118.813 51.2469 114.745 49.8063 110.55 49.8063C106.355 49.8063 102.287 51.2469 99.0269 53.8869C95.7668 56.527 93.5121 60.2066 92.64 64.31H83.64L76.77 57.44H38V78.81H69.11C71.0648 86.3364 75.0377 93.1861 80.6 98.62L65 125.57L83.5 136.25L99.06 109.31C106.547 111.376 114.453 111.376 121.94 109.31L137.49 136.25L156 125.57L136.66 92C132.062 97.0258 126.113 100.619 119.524 102.348C112.936 104.078 105.989 103.871 99.5152 101.751C93.0418 99.6317 87.317 95.6901 83.0273 90.399C78.7376 85.1079 76.065 78.6918 75.33 71.92H92.62C93.4921 76.0234 95.7468 79.703 99.0069 82.3431C102.267 84.9832 106.335 86.4237 110.53 86.4237C114.725 86.4237 118.793 84.9832 122.053 82.3431C125.313 79.703 127.568 76.0234 128.44 71.92H137.44L144.31 78.79H183V57.44H151.93Z" fill="#3B6BBD"/>
<path d="M178.462 164.402L169.538 152.013H164.455V171.987H169.538V159.598L178.462 171.987H183.545V152.013H178.462V164.402Z" fill="#3B6BBD"/>
<path d="M220.164 152.013H186.135V171.987H191.218V161.208L193.685 163.334H199.197V158.955H191.218V156.392H209.101L209.092 171.987H214.175L214.184 158.562L211.695 156.392H220.164V152.013Z" fill="#3B6BBD"/>
<path d="M11.9729 158.955H5.08311V152.013H0V171.987H5.08311L5.11374 161.23L7.55031 163.334H11.9729V171.987H17.056V152.013H11.9729V158.955Z" fill="#3B6BBD"/>
<path d="M38.272 152.013V171.991H43.3638V156.392H50.2449V158.96H45.4067V162.131L50.2449 166.305V171.991H55.328V166.322L51.8721 163.334H55.328V155.937L50.8004 152.013H38.272Z" fill="#3B6BBD"/>
<path d="M58.4033 152.013V168.063L62.9309 172H75.4593V155.937L70.9318 152L58.4033 152.013ZM70.35 167.612H63.4908L63.5214 156.392H70.3849L70.35 167.612Z" fill="#3B6BBD"/>
<path d="M96.251 152.013V157.368L108.097 167.608H101.334V164.883H96.251V168.063L100.779 171.987H113.316V166.633L101.47 156.388H108.233V159.117H113.316V155.937L108.788 152.013H96.251Z" fill="#3B6BBD"/>
<path d="M35.1877 156.392L35.2052 152.013H20.1353V168.063L24.6628 171.987H35.1834L35.1965 167.612H25.2184V161.208L27.6856 163.334H33.1974V158.955H25.2184V156.392H35.1877Z" fill="#3B6BBD"/>
<path d="M93.5955 156.392L93.613 152.013H78.543V168.063L83.0705 171.987H93.5867L93.6042 167.612H83.6261V161.208L86.0933 163.334H91.6051V158.955H83.6261V156.392H93.5955Z" fill="#3B6BBD"/>
<path d="M121.316 152.013V168.063L125.843 172H138.376V155.941L133.849 152.004L121.316 152.013ZM133.293 167.612H126.395V156.392H133.284L133.293 167.612Z" fill="#3B6BBD"/>
<path d="M141.376 171.987H146.464V161.208L148.936 163.334H154.443V158.955H146.464V156.392H156.455V152.013H141.376V171.987Z" fill="#3B6BBD"/>
</svg>
